<?xml version="1.0" encoding="utf-8"?>
<!-- Generator: Adobe Illustrator 24.2.3, SVG Export Plug-In . SVG Version: 6.00 Build 0)  -->
<svg version="1.1" id="Calque_1" xmlns="http://www.w3.org/2000/svg" xmlns:xlink="http://www.w3.org/1999/xlink" x="0px" y="0px"
	 viewBox="0 0 2241.7 597.8" style="enable-background:new 0 0 2241.7 597.8;" xml:space="preserve">
<style type="text/css">
	.st0{fill:#FFFFFF;}
</style>
<g>
	<g>
		<g>
			<g>
				<path class="st0" d="M942.23,393.42c0-1.96-0.7-3.73-2.1-5.3c-2.41-2.64-5.69-3.95-9.84-3.95c-2.41,0-4.68,0.56-6.81,1.68
					c-3.42,1.8-5.13,4.32-5.13,7.57c0,0.56,0.14,1.15,0.42,1.77c0.95,1.85,4.12,3.81,9.5,5.89c6.67,2.64,10.68,4.26,12.03,4.88
					c6.78,3.42,10.18,7.65,10.18,12.7c-0.06,3.59-1.57,6.9-4.54,9.92c-4.09,4.04-9.31,6.06-15.64,6.06c-5.5,0-10.23-1.54-14.21-4.63
					c-3.98-3.2-5.97-6.98-5.97-11.35h6.73c0.06,1.96,0.9,3.76,2.52,5.38c2.75,2.58,6.39,3.87,10.93,3.87c2.86,0,5.52-0.62,7.99-1.85
					c3.64-1.85,5.47-4.32,5.47-7.4c0-0.62-0.17-1.23-0.5-1.85c-0.95-1.91-4.15-3.92-9.59-6.06c-6.62-2.58-10.57-4.18-11.86-4.79
					c-6.78-3.36-10.18-7.54-10.18-12.53c0-3.64,1.35-6.95,4.04-9.92c3.7-4.04,8.58-6.06,14.63-6.06c4.82,0,9.03,1.4,12.62,4.21
					c4.04,3.2,6.05,7.12,6.05,11.77H942.23z"/>
				<path class="st0" d="M1011.03,377.44v6.73h-3.36h-30.28v18.5h21.19h3.36v6.73h-3.36h-21.19v18.5h30.28h3.36v6.73h-3.36h-33.64
					h-3.36v-3.36V409.4v-6.73V380.8v-3.36h3.36h33.64H1011.03z"/>
				<path class="st0" d="M1039.62,434.63h-6.73v-3.36V380.8v-3.36h5.13l1.01,1.43l29.1,41.72l0.08-39.78v-3.36h6.73v3.36
					l-0.08,50.46v3.36h-5.13l-1.01-1.43l-29.1-41.72v39.78V434.63z"/>
				<path class="st0" d="M1099,377.44h6.73v3.36v50.46v3.36H1099v-3.36V380.8V377.44z"/>
				<path class="st0" d="M1133.23,385.35c4.88-5.27,10.68-7.91,17.41-7.91c6.73,0.06,12.56,2.72,17.49,7.99
					c5.16,5.61,7.74,12.48,7.74,20.61c0,8.13-2.61,15.03-7.82,20.69c-4.88,5.27-10.68,7.91-17.41,7.91
					c-6.73-0.05-12.56-2.72-17.49-7.99c-5.16-5.61-7.74-12.47-7.74-20.6C1125.41,397.91,1128.01,391.01,1133.23,385.35z
					 M1137.01,420.84c3.64,4.71,8.19,7.06,13.62,7.06c4.71-0.05,8.83-1.93,12.36-5.63c4.09-4.37,6.14-9.78,6.14-16.23
					c0-5.61-1.63-10.54-4.88-14.8c-3.65-4.71-8.19-7.06-13.62-7.06c-4.71,0.06-8.83,1.93-12.36,5.63
					c-4.09,4.37-6.14,9.79-6.14,16.23C1132.13,411.64,1133.76,416.58,1137.01,420.84z"/>
				<path class="st0" d="M1239.62,430.34l1.34,4.29h-7.06l-0.67-2.44c-1.85-6.11-3.53-10.79-5.05-14.04
					c-1.8-3.76-4.07-6.67-6.81-8.75h-16.91v21.87v3.36h-6.73v-3.36V409.4v-3.36l0.08-25.15v-3.36h3.36l21.28-0.08
					c4.37,0,8.19,1.35,11.44,4.04c3.92,3.2,5.89,7.2,5.89,12.03c0,1.8-0.34,3.56-1.01,5.3c-1.57,4.21-4.57,7.26-9,9.17
					C1233.03,411.78,1236.31,419.24,1239.62,430.34z M1211.78,402.67h10.77c2.07,0,4.01-0.5,5.8-1.51c3.14-1.79,4.71-4.34,4.71-7.65
					c0-1.91-0.62-3.67-1.85-5.3c-2.07-2.69-4.99-4.04-8.75-4.04h-18v18.59h7.4L1211.78,402.67z"/>
				<path class="st0" d="M1328.26,402.67h25.06v3.37c0,8.13-2.61,15.03-7.82,20.69c-4.88,5.27-10.65,7.91-17.33,7.91
					c-6.73-0.05-12.59-2.72-17.58-7.99c-5.16-5.61-7.74-12.47-7.74-20.6c0.05-8.07,2.66-14.97,7.82-20.69
					c4.93-5.27,10.77-7.91,17.49-7.91c3.81,0,7.57,0.92,11.27,2.78c4.76,2.41,8.16,5.61,10.18,9.59l-6.06,3.03
					c-0.73-1.35-1.77-2.66-3.11-3.95c-3.59-3.2-7.68-4.77-12.28-4.71c-4.77,0.06-8.92,1.93-12.45,5.63
					c-4.09,4.32-6.14,9.73-6.14,16.23c0,5.61,1.6,10.51,4.79,14.72c3.7,4.77,8.3,7.15,13.79,7.15c4.99-0.05,9.39-2.13,13.2-6.22
					c3.48-3.81,5.21-7.91,5.21-12.28h-18.33V402.67z"/>
				<path class="st0" d="M1417.07,430.34l1.34,4.29h-7.06l-0.67-2.44c-1.85-6.11-3.53-10.79-5.05-14.04
					c-1.8-3.76-4.07-6.67-6.81-8.75h-16.91v21.87v3.36h-6.73v-3.36V409.4v-3.36l0.08-25.15v-3.36h3.36l21.28-0.08
					c4.37,0,8.19,1.35,11.44,4.04c3.92,3.2,5.89,7.2,5.89,12.03c0,1.8-0.34,3.56-1.01,5.3c-1.57,4.21-4.57,7.26-9,9.17
					C1410.49,411.78,1413.77,419.24,1417.07,430.34z M1389.24,402.67H1400c2.07,0,4.01-0.5,5.8-1.51c3.14-1.79,4.71-4.34,4.71-7.65
					c0-1.91-0.62-3.67-1.85-5.3c-2.07-2.69-4.99-4.04-8.75-4.04h-18v18.59h7.4L1389.24,402.67z"/>
				<path class="st0" d="M1437.93,434.63h-7.32l2.02-4.71l21.87-50.46l0.92-2.02h4.37l0.93,2.02l21.87,50.46l2.02,4.71h-7.32
					l-0.92-2.02l-18.76-43.31l-18.75,43.31L1437.93,434.63z"/>
				<path class="st0" d="M1501.34,406.04l0.08-25.15v-3.36h3.36l21.36-0.08c4.26,0,8.04,1.35,11.35,4.04
					c3.92,3.2,5.89,7.2,5.89,12.03c0,3.76-1.32,7.12-3.95,10.09c-3.42,3.87-7.85,5.8-13.29,5.8h-18.08v21.87v3.36h-6.73v-3.36V409.4
					V406.04z M1526.15,402.67c2.07,0,4.01-0.5,5.8-1.51c3.14-1.79,4.71-4.34,4.71-7.65c0-1.91-0.62-3.67-1.85-5.3
					c-2.07-2.69-4.96-4.04-8.66-4.04h-18.08v18.59L1526.15,402.67z"/>
				<path class="st0" d="M1605.63,431.27v3.36h-6.73v-3.36V409.4h-28.59v21.87v3.36h-6.73v-3.36V409.4v-6.73V380.8v-3.36h6.73v3.36
					v21.87h28.59V380.8v-3.36h6.73v3.36v21.87v6.73V431.27z"/>
				<path class="st0" d="M1629.69,377.44h6.73v3.36v50.46v3.36h-6.73v-3.36V380.8V377.44z"/>
				<path class="st0" d="M1701.09,422.52c-1.18,2.02-2.8,3.93-4.88,5.72c-5.05,4.26-10.6,6.39-16.65,6.39
					c-6.73-0.05-12.53-2.72-17.41-7.99c-5.16-5.61-7.74-12.47-7.74-20.6c0-8.19,2.61-15.08,7.82-20.69
					c4.82-5.27,10.6-7.91,17.33-7.91c3.75,0,7.49,0.92,11.19,2.78c4.82,2.47,8.24,5.66,10.26,9.59l-6.05,3.03
					c-0.67-1.35-1.71-2.66-3.11-3.95c-3.59-3.14-7.68-4.71-12.28-4.71c-4.71,0.06-8.83,1.93-12.36,5.63
					c-4.04,4.37-6.06,9.79-6.06,16.23c0,5.55,1.6,10.46,4.79,14.72c3.64,4.77,8.19,7.15,13.62,7.15c2.3,0,4.6-0.48,6.9-1.43
					c4.04-1.68,6.95-4.12,8.75-7.32L1701.09,422.52z"/>
				<path class="st0" d="M1766.27,434.63v-3.36V380.8v-3.36h3.36h18.67h0.17c6.22,0.62,11.44,3.51,15.64,8.66
					c4.6,5.66,6.56,12.31,5.89,19.93c0.62,7.4-1.26,13.96-5.63,19.68c-4.26,5.38-9.56,8.36-15.9,8.91h-0.17h-0.17h-18.5H1766.27z
					 M1787.97,427.9c4.21-0.39,7.77-2.38,10.68-5.97c3.59-4.43,5.13-9.73,4.63-15.89v-0.25c0.39-5.16-0.73-9.81-3.36-13.96
					c-2.97-4.65-6.95-7.2-11.94-7.65H1773v43.73H1787.97z"/>
				<path class="st0" d="M1872.24,377.44v6.73h-3.36h-30.28v18.5h21.19h3.36v6.73h-3.36h-21.19v18.5h30.28h3.36v6.73h-3.36h-33.64
					h-3.36v-3.36V409.4v-6.73V380.8v-3.36h3.36h33.64H1872.24z"/>
				<path class="st0" d="M1921.19,393.42c0-1.96-0.7-3.73-2.1-5.3c-2.41-2.64-5.69-3.95-9.84-3.95c-2.41,0-4.68,0.56-6.81,1.68
					c-3.42,1.8-5.13,4.32-5.13,7.57c0,0.56,0.14,1.15,0.42,1.77c0.95,1.85,4.12,3.81,9.5,5.89c6.67,2.64,10.68,4.26,12.03,4.88
					c6.78,3.42,10.18,7.65,10.18,12.7c-0.06,3.59-1.57,6.9-4.54,9.92c-4.09,4.04-9.31,6.06-15.64,6.06c-5.5,0-10.23-1.54-14.21-4.63
					c-3.98-3.2-5.97-6.98-5.97-11.35h6.73c0.06,1.96,0.9,3.76,2.52,5.38c2.75,2.58,6.39,3.87,10.93,3.87c2.86,0,5.52-0.62,7.99-1.85
					c3.64-1.85,5.47-4.32,5.47-7.4c0-0.62-0.17-1.23-0.5-1.85c-0.95-1.91-4.15-3.92-9.59-6.06c-6.62-2.58-10.57-4.18-11.86-4.79
					c-6.78-3.36-10.18-7.54-10.18-12.53c0-3.64,1.35-6.95,4.04-9.92c3.7-4.04,8.58-6.06,14.63-6.06c4.82,0,9.03,1.4,12.62,4.21
					c4.04,3.2,6.05,7.12,6.05,11.77H1921.19z"/>
				<path class="st0" d="M1948.44,377.44h6.73v3.36v50.46v3.36h-6.73v-3.36V380.8V377.44z"/>
				<path class="st0" d="M2000.24,402.67h25.06v3.37c0,8.13-2.61,15.03-7.82,20.69c-4.88,5.27-10.65,7.91-17.33,7.91
					c-6.73-0.05-12.59-2.72-17.58-7.99c-5.16-5.61-7.74-12.47-7.74-20.6c0.05-8.07,2.66-14.97,7.82-20.69
					c4.93-5.27,10.77-7.91,17.49-7.91c3.81,0,7.57,0.92,11.27,2.78c4.76,2.41,8.16,5.61,10.18,9.59l-6.06,3.03
					c-0.73-1.35-1.77-2.66-3.11-3.95c-3.59-3.2-7.68-4.77-12.28-4.71c-4.77,0.06-8.92,1.93-12.45,5.63
					c-4.09,4.32-6.14,9.73-6.14,16.23c0,5.61,1.6,10.51,4.79,14.72c3.7,4.77,8.3,7.15,13.79,7.15c4.99-0.05,9.39-2.13,13.2-6.22
					c3.48-3.81,5.21-7.91,5.21-12.28h-18.33V402.67z"/>
				<path class="st0" d="M2053.9,434.63h-6.73v-3.36V380.8v-3.36h5.13l1.01,1.43l29.1,41.72l0.08-39.78v-3.36h6.73v3.36l-0.08,50.46
					v3.36h-5.13l-1.01-1.43l-29.1-41.72v39.78V434.63z"/>
				<path class="st0" d="M2154.82,377.44v6.73h-3.36h-30.28v18.5h21.19h3.36v6.73h-3.36h-21.19v18.5h30.28h3.36v6.73h-3.36h-33.64
					h-3.36v-3.36V409.4v-6.73V380.8v-3.36h3.36h33.64H2154.82z"/>
				<path class="st0" d="M2218.57,430.34l1.34,4.29h-7.06l-0.67-2.44c-1.85-6.11-3.53-10.79-5.05-14.04
					c-1.8-3.76-4.07-6.67-6.81-8.75h-16.91v21.87v3.36h-6.73v-3.36V409.4v-3.36l0.08-25.15v-3.36h3.36l21.28-0.08
					c4.37,0,8.19,1.35,11.44,4.04c3.92,3.2,5.89,7.2,5.89,12.03c0,1.8-0.34,3.56-1.01,5.3c-1.57,4.21-4.57,7.26-9,9.17
					C2211.98,411.78,2215.27,419.24,2218.57,430.34z M2190.74,402.67h10.77c2.07,0,4.01-0.5,5.8-1.51c3.14-1.79,4.71-4.34,4.71-7.65
					c0-1.91-0.62-3.67-1.85-5.3c-2.07-2.69-4.99-4.04-8.75-4.04h-18v18.59h7.4L2190.74,402.67z"/>
			</g>
			<g>
				<g>
					<path class="st0" d="M919.21,228.66h11.6v5.8v86.99v5.8h-11.6v-5.8v-86.99V228.66z"/>
					<path class="st0" d="M978.5,327.25h-11.6v-5.8v-86.99v-5.8h8.84l1.74,2.46l50.16,71.91l0.14-68.57v-5.8h11.6v5.8l-0.14,86.99
						v5.8h-8.84l-1.74-2.46l-50.16-71.91v68.57V327.25z"/>
					<path class="st0" d="M1148.85,228.66v11.6h-5.8h-52.19v31.89h36.53h5.8v11.6h-5.8h-36.53v31.9h52.19h5.8v11.6h-5.8h-57.99h-5.8
						v-5.8v-37.69v-11.6v-37.69v-5.8h5.8h57.99H1148.85z"/>
					<path class="st0" d="M1229.6,256.21c0-3.38-1.21-6.43-3.62-9.13c-4.16-4.54-9.81-6.81-16.96-6.81c-4.16,0-8.07,0.97-11.74,2.9
						c-5.9,3.09-8.84,7.44-8.84,13.05c0,0.97,0.24,1.98,0.73,3.04c1.64,3.19,7.1,6.57,16.38,10.15c11.5,4.54,18.41,7.35,20.73,8.41
						c11.69,5.9,17.54,13.19,17.54,21.89c-0.1,6.19-2.71,11.89-7.83,17.11c-7.06,6.96-16.05,10.44-26.97,10.44
						c-9.47,0-17.64-2.66-24.5-7.97c-6.86-5.51-10.29-12.03-10.29-19.57h11.6c0.1,3.39,1.55,6.48,4.35,9.28
						c4.73,4.45,11.02,6.67,18.85,6.67c4.93,0,9.52-1.06,13.77-3.19c6.28-3.19,9.42-7.44,9.42-12.76c0-1.06-0.29-2.12-0.87-3.19
						c-1.65-3.28-7.15-6.76-16.53-10.44c-11.41-4.44-18.22-7.2-20.44-8.26c-11.7-5.8-17.54-13-17.54-21.6
						c0-6.28,2.32-11.98,6.96-17.11c6.38-6.96,14.79-10.44,25.23-10.44c8.31,0,15.56,2.42,21.75,7.25
						c6.96,5.51,10.44,12.28,10.44,20.3H1229.6z"/>
					<path class="st0" d="M1420.68,321.45v5.8h-11.6v-5.8v-37.69h-49.29v37.69v5.8h-11.6v-5.8v-37.69v-11.6v-37.69v-5.8h11.6v5.8
						v37.69h49.29v-37.69v-5.8h11.6v5.8v37.69v11.6V321.45z"/>
					<path class="st0" d="M1458.52,327.25h-12.61l3.48-8.12l37.69-86.99l1.59-3.48h7.54l1.59,3.48l37.69,86.99l3.48,8.12h-12.61
						l-1.6-3.48l-32.33-74.66l-32.33,74.66L1458.52,327.25z"/>
					<path class="st0" d="M1636.41,319.86l2.32,7.39h-12.18l-1.16-4.2c-3.19-10.53-6.09-18.61-8.7-24.21
						c-3.09-6.47-7.01-11.5-11.74-15.08h-29.14v37.69v5.8h-11.6v-5.8v-37.69v-5.8l0.14-43.35v-5.8h5.8l36.68-0.14
						c7.54,0,14.11,2.32,19.72,6.96c6.76,5.51,10.15,12.42,10.15,20.73c0,3.09-0.58,6.14-1.74,9.13
						c-2.71,7.25-7.88,12.52-15.51,15.8C1625.05,287.86,1630.71,300.72,1636.41,319.86z M1588.42,272.16h18.56
						c3.57,0,6.91-0.87,10-2.61c5.41-3.09,8.12-7.49,8.12-13.19c0-3.28-1.07-6.33-3.19-9.13c-3.58-4.64-8.6-6.96-15.08-6.96h-31.03
						v32.04h12.76L1588.42,272.16z"/>
					<path class="st0" d="M1742.97,319.86l2.32,7.39h-12.18l-1.16-4.2c-3.19-10.53-6.09-18.61-8.7-24.21
						c-3.09-6.47-7.01-11.5-11.74-15.08h-29.14v37.69v5.8h-11.6v-5.8v-37.69v-5.8l0.14-43.35v-5.8h5.8l36.68-0.14
						c7.54,0,14.11,2.32,19.72,6.96c6.76,5.51,10.15,12.42,10.15,20.73c0,3.09-0.58,6.14-1.74,9.13
						c-2.71,7.25-7.88,12.52-15.51,15.8C1731.61,287.86,1737.26,300.72,1742.97,319.86z M1694.98,272.16h18.56
						c3.57,0,6.91-0.87,10-2.61c5.41-3.09,8.12-7.49,8.12-13.19c0-3.28-1.07-6.33-3.19-9.13c-3.58-4.64-8.6-6.96-15.08-6.96h-31.03
						v32.04h12.76L1694.98,272.16z"/>
					<path class="st0" d="M1775.29,327.25h-12.61l3.48-8.12l37.69-86.99l1.59-3.48h7.54l1.59,3.48l37.69,86.99l3.48,8.12h-12.61
						l-1.6-3.48l-32.33-74.66l-32.33,74.66L1775.29,327.25z"/>
					<path class="st0" d="M1943.32,278.97c6.76,5.51,10.15,12.42,10.15,20.73c0,6.48-2.27,12.28-6.81,17.4
						c-5.9,6.77-13.48,10.15-22.76,10.15h-37.11h-5.8v-5.8v-37.69v-5.8l0.14-43.35v-5.8h5.8l31.61-0.14
						c7.44,0,14.01,2.32,19.72,6.96c6.67,5.61,10,12.47,10,20.59c-0.1,7.64-3.19,14.26-9.28,19.86
						C1940.52,276.94,1941.97,277.91,1943.32,278.97z M1918.53,272.16c3.67,0,7.1-0.96,10.29-2.9c5.22-3.19,7.83-7.54,7.83-13.05
						c0-3.28-1.11-6.33-3.33-9.13c-3.67-4.54-8.6-6.81-14.79-6.81h-25.95v32.04L1918.53,272.16z M1892.73,315.8l31.17-0.14
						c3.67,0,7.05-0.97,10.15-2.9c5.22-3.19,7.83-7.54,7.83-13.05c0-3.28-1.07-6.33-3.19-9.13c-3.58-4.54-8.51-6.81-14.79-6.81
						h-5.36h-25.81V315.8z"/>
					<path class="st0" d="M1982.61,228.66h11.6v5.8v86.99v5.8h-11.6v-5.8v-86.99V228.66z"/>
				</g>
			</g>
		</g>
	</g>
	<g>
		<path class="st0" d="M760.84,448.52c0,0,2.55-8.91-5.52-2.12c-8.06,6.79-21.64,26.73-17.82,31.82c3.82,5.09,11.96-0.54,16.12,0
			c4.16,0.54,2.63,5.38,1.27,6.79c-1.36,1.41-17.4,19.09-39.04,25.46c0,0-10.04,5.29,2.55,2.97c35.14-6.47,45.3-32.25,46.41-38.19
			c1.11-5.94-1.01-9.34-6.1-10.61c-5.09-1.27-9.88-2.93-5.09-6.36C759.42,454.12,760.84,448.52,760.84,448.52z"/>
		<path class="st0" d="M611.5,331.65l-33.48-16.2c0,0,8.15-22.09,17.41-26.28c9.25-4.19,22.28,12.68,28.72,15.13
			C624.15,304.29,609.99,321.38,611.5,331.65z"/>
		<g>
			<g>
				<g>
					<path class="st0" d="M644.99,441.41l-8.37,54.07c0,0,33.55,8.59,46.35,0.89c12.8-7.7,3.27-37.56,5.69-47.41
						C688.67,448.95,656.16,451.82,644.99,441.41z"/>
				</g>
				<g>
					<path class="st0" d="M721.48,466.87l-32.75-17.63c0,0,9.1-21.72,18.53-25.5c9.43-3.79,21.71,13.63,28.04,16.36
						C735.3,440.09,720.41,456.55,721.48,466.87z"/>
				</g>
			</g>
		</g>
		<path class="st0" d="M761.58,136.77c-81.84-116.18-274.23-149.1-453-79.64c-131.27,51-227.51,145.21-264.95,245.61
			c-6.3,17.2-10.99,34.47-13.89,51.64c-0.08,0.47-0.17,0.94-0.24,1.41c-0.08,0.5-0.15,1-0.23,1.5c-4.03,26.35-3.8,52.67,1.1,78.31
			c1.19,5.92,2.52,11.65,4.01,17.17c1.9,6.86,4.14,13.67,6.76,20.39c9.32,23.99,22.66,45.57,39.3,64.6
			c78.02,77.89,212.08,25.43,218.38-127.93c0.44-10.62,4.17-18.66,14.73-27.88c10.56-9.22,69.56-7.55,98.47-15.82
			c16.95-4.85,48.23-42.59,79.64-83.74c6.15,48.15,16.23,141.13,57.76,157.1c42.81,16.46,61.95-19.24,61.95-19.24
			s0.94,3.17,3.18,3.28c14.29,0.67,44.93-31.87,51.98-43.17c7.05-11.3,7.05-54.66,7.05-54.66s-0.79-9.6-5.63-7.86
			c-4.85,1.74-2.17,3.56-5.94,19.52c-3.91,16.56-42.15,37.34-42.15,37.34c1.41-8.2,0.39-19.02-4.53-20.37
			c-3.53-0.97-3.96,5.66-3.96,5.66c-0.85,30.55-51.27,58.12-71,26.02c-16.51-26.85-29.94-100.05-33.89-123.25
			c35.59-47.49,68.42-93.34,77.18-93.32c6.58,0.01,13.56-5,17.13-12.84c3.57-7.85,17.13-39.25,12.84-45.67
			c-4.28-6.42-9.16-9.14-15.1-6.17c-5.94,2.97-155.43,193.96-194.04,216.13c-25.38,14.57-80.36,35.34-95.05,39.04
			c-25.27,6.36-62.8-35.64-71.71-53.46c0,0-24.61,51.34-24.19,57.28c0.42,5.94,2.74,11.45,12.31,18.25
			c15.25,10.83,50.12,32.85,30.55,72.13c-38.08,76.45-190.91,78.16-188.99-83.36C70.31,127.37,373.38,15.37,562.24,65.18
			c238.88,63,208.7,260.56,147.41,352.9c0.15,0,0.29-0.02,0.44-0.02c2.38,0,4.56,0.62,6.54,1.47c1.98,0.86,3.8,1.98,5.53,3.21
			c3.44,2.46,6.56,5.38,9.26,7.85c1.79,1.64,3.4,3.07,4.58,3.94c0.66,0.5,1.19,0.79,1.34,0.85c0.39,0.17,0.75,0.39,1.09,0.64
			c8.75-11.54,16.3-22.43,23-33.72c25.64-44.62,39.74-91.81,40.03-138C800.89,201.9,779.47,162.17,761.58,136.77z"/>
		<path class="st0" d="M645.49,502.58c-5.94-1.06-10.05-2.11-10.14-2.13c-0.47-0.12-0.9-0.32-1.3-0.56
			c-40.85,67.29-100.54,67.06-128.34,60.73c-72.54-17.75-128.9-99.72-164.07-161.49c-3.74-6.74-12.72-8.76-18.98-4.25
			c-5.89,4.18-7.27,12.35-3.09,18.24c42.63,59.36,104.16,138.12,178.15,155.82c31.08,7.44,91.32,16.01,177.55-64.81
			c-2.77,0.41-5.64,0.58-8.54,0.58C659.19,504.7,651.44,503.63,645.49,502.58z"/>
	</g>
</g>
</svg>
